<?xml version="1.0" encoding="utf-8"?>
<!-- Generator: Adobe Illustrator 19.1.0, SVG Export Plug-In . SVG Version: 6.00 Build 0)  -->
<svg version="1.1"
	 id="svg5704" xmlns:svg="http://www.w3.org/2000/svg" xmlns:rdf="http://www.w3.org/1999/02/22-rdf-syntax-ns#" xmlns:cc="http://creativecommons.org/ns#" xmlns:dc="http://purl.org/dc/elements/1.1/"
	 xmlns="http://www.w3.org/2000/svg" xmlns:xlink="http://www.w3.org/1999/xlink" x="0px" y="0px" viewBox="25 141 892.9 314.3"
	 style="enable-background:new 25 141 892.9 314.3;" xml:space="preserve">
<style type="text/css">
	.st0{fill:#FFFFFF;}
	.st1{clip-path:url(#SVGID_2_);}
	.st2{fill:#E42A20;}
</style>
<g id="layer1" transform="translate(31.707696,-356.12699)">
	<g id="g5781" transform="matrix(7.3477076,0,0,7.3477076,-970.81873,821.3145)">
		<g id="g5104" transform="matrix(1.25,0,0,-1.25,224.22354,-60.208474)">
			<path id="path5106" class="st0" d="M2.7-15.4h2.5v0.9h-8.9v-0.9H-1v-17.8h-2.6v-0.9h8.9v0.9H2.7V-15.4z"/>
		</g>
		<g id="g5108" transform="matrix(1.25,0,0,-1.25,-466.52532,3.9224058)">
			<g>
				<defs>
					<polygon id="SVGID_1_" points="468.7,-5.1 584.5,-5.1 584.5,46.7 468.7,46.7 468.7,-5.1 					"/>
				</defs>
				<clipPath id="SVGID_2_">
					<use xlink:href="#SVGID_1_"  style="overflow:visible;"/>
				</clipPath>
				<g id="g5110" class="st1">
					<g id="g5116" transform="translate(568.7147,32.5637)">
						<path id="path5118" class="st0" d="M2.7-15.4v0.9H0v18c4.1,0.2,4.9-0.7,5.4-4.4h0.9L6,4.3H-9.8l-0.3-5.2h0.9
							c0.5,3.8,1.2,4.7,5.4,4.4v-18h-2.7l0-0.9H2.7"/>
					</g>
					<g id="g5120" transform="translate(544.5986,51.3118)">
						<path id="path5122" class="st0" d="M2.7-15.4v0.9h-7.3l-4.3-13.5l-4.1,13.5h-7.2v-0.9h2.5v-17.8l-2.7,0
							c-2.6-0.1-2.6,2.1-2.6,2.6c0,4.8-1,6.5-5.6,7.3v0.1c2.7,0.3,6.2,1.1,6.2,4.4c0,4.1-3.8,4.5-7,4.5h-9.5v-0.9h2.5v-17.8h-2.5
							v-0.9h8.9v0.9h-2.5v9.4c1.6,0.1,3.5-0.4,4.3-1.1c0.8-0.6,1.2-2.7,1.2-5.1c0-3,1.6-4.1,4.5-4.1h8.5v0.9h-2.5v17.5h0.1l5.9-18.4
							h1l5.9,18.4h0.1v-17.5h-2.5v-0.9h8.8v0.9H0.2l0,17.8H2.7z M-32.5-22.9v7.5h2.6c2.6,0,3.6-0.7,3.6-4c0-2.6-1.1-3.5-3.7-3.5
							H-32.5"/>
					</g>
					<g id="g5124" transform="translate(487.3641,53.408)">
						<path id="path5126" class="st2" d="M2.7-15.4h-2.9v-2.4h-4.9v-5h-3.7V-30h3.7v-5h4.9v-2.4h2.6c6.1,0,11.4,4.9,11.4,11
							C13.8-20.3,8.8-15.4,2.7-15.4"/>
					</g>
					<g id="g5128" transform="translate(505.5656,26.6105)">
						<path id="path5130" class="st0" d="M2.7-15.4c0,0.2-0.1,0.2-0.2,0.2H2v0.9h1.1c0.5,0,0.7-0.2,0.7-0.7v-4.3
							c0-1.2,0.7-1.8,1.8-1.8c1.1,0,1.8,0.7,1.8,1.9v4.3c0,0.5,0.2,0.7,0.7,0.7h1.1v-0.9H8.8c-0.2,0-0.2-0.1-0.2-0.2v-3.8
							c0-1.7-1.2-2.8-2.9-2.8c-1.8,0-3,1.1-3,2.8L2.7-15.4z"/>
					</g>
					<g id="g5132" transform="translate(512.8934,21.0164)">
						<path id="path5134" class="st0" d="M2.7-15.4h0.5c0.2,0,0.2,0.1,0.2,0.2v6.5h1l3.4-4.9c0.3-0.4,0.6-1,0.6-1h0
							c0,0-0.1,0.6-0.1,1v4.2c0,0.5,0.2,0.7,0.7,0.7h1.1v-0.9H9.8c-0.2,0-0.2-0.1-0.2-0.2v-6.5h-1l-3.4,4.9c-0.3,0.4-0.6,1-0.6,1h0
							c0,0,0.1-0.6,0.1-1v-4.2c0-0.5-0.2-0.7-0.7-0.7H2.7V-15.4z"/>
					</g>
					<g id="g5136" transform="translate(521.6069,21.0164)">
						<path id="path5138" class="st0" d="M2.7-15.4h0.8v5.8H2.7v0.9h2.5v-0.9H4.5v-5.8h0.8v-0.9H2.7V-15.4z"/>
					</g>
					<g id="g5140" transform="translate(525.3431,26.6105)">
						<path id="path5142" class="st0" d="M2.7-15.4c-0.1,0.2-0.2,0.2-0.4,0.2H2.2v0.9h0.6c0.5,0,0.7-0.1,0.9-0.6l1.7-4.8
							c0.1-0.4,0.3-1.1,0.3-1.1h0c0,0,0.1,0.6,0.3,1.1l1.7,4.8c0.2,0.5,0.4,0.6,0.9,0.6h0.6v-0.9H9.1c-0.2,0-0.3,0-0.4-0.2l-2.4-6.5
							H5.1L2.7-15.4z"/>
					</g>
					<g id="g5144" transform="translate(533.2109,26.8508)">
						<path id="path5146" class="st0" d="M2.7-15.4H2v0.9h4.5c0.5,0,0.7-0.2,0.7-0.7v-1h-1v0.5c0,0.2-0.1,0.2-0.2,0.2H3.8v-2.4h2.7
							v-0.9H3.8v-2.2c0-0.2,0.1-0.2,0.2-0.2h2.2c0.2,0,0.2,0.1,0.2,0.2v0.5h1v-1c0-0.5-0.2-0.7-0.7-0.7H3.4c-0.5,0-0.7,0.2-0.7,0.7
							V-15.4z"/>
					</g>
					<g id="g5148" transform="translate(542.0873,24.086)">
						<path id="path5150" class="st0" d="M2.7-15.4C3.6-15.4,4-14.8,4-14c0,0.9-0.5,1.4-1.3,1.4H1.3v-2.8H2.7z M0.2-12.6h-0.7v0.9
							h3.4c1.4,0,2.3-0.9,2.3-2.3c0-1.3-0.8-1.9-1.4-2v0c0,0,0.2-0.1,0.3-0.4L5-18.2c0.1-0.2,0.3-0.3,0.5-0.3h0.1v-0.9H5.2
							c-0.6,0-0.8,0.1-1.1,0.6l-1,2.1c-0.2,0.4-0.3,0.4-0.8,0.4h-1v-3.1H0.2C0.2-19.4,0.2-12.6,0.2-12.6z"/>
					</g>
					<g id="g5152" transform="translate(546.4899,21.8685)">
						<path id="path5154" class="st0" d="M2.7-15.4c0,0,0.8-0.9,1.9-0.9c0.7,0,1.3,0.4,1.3,1.1c0,1.6-3.7,1.4-3.7,3.8
							c0,1.2,1,2.1,2.5,2.1c0.8,0,2.2-0.4,2.2-1.4v-0.6h-1v0.4c0,0.4-0.6,0.7-1.2,0.7c-0.8,0-1.4-0.5-1.4-1c0-1.6,3.7-1.2,3.7-3.7
							c0-1.2-0.9-2.2-2.4-2.2c-1.6,0-2.6,1.1-2.6,1.1L2.7-15.4z"/>
					</g>
					<g id="g5156" transform="translate(551.9955,21.0164)">
						<path id="path5158" class="st0" d="M2.7-15.4h0.8v5.8H2.7v0.9h2.5v-0.9H4.5v-5.8h0.8v-0.9H2.7V-15.4z"/>
					</g>
					<g id="g5160" transform="translate(558.017,26.8508)">
						<path id="path5162" class="st0" d="M2.7-15.4H1.2c-0.2,0-0.2-0.1-0.2-0.2v-0.5H0v1c0,0.5,0.2,0.7,0.7,0.7h5.3
							c0.5,0,0.7-0.2,0.7-0.7v-1h-1v0.5c0,0.2-0.1,0.2-0.2,0.2H3.8v-6.8H2.7V-15.4z"/>
					</g>
					<g id="g5164" transform="translate(564.9893,23.4417)">
						<path id="path5166" class="st0" d="M2.7-15.4l-2,3.1c-0.1,0.2-0.2,0.3-0.5,0.3H0.1v0.9h0.5c0.5,0,0.7-0.1,1-0.6l1.2-1.9
							C3-14,3.3-14.4,3.3-14.4h0c0,0,0.2,0.4,0.5,0.9l1.2,1.9c0.3,0.5,0.5,0.6,1,0.6h0.5v-0.9H6.2c-0.2,0-0.3,0-0.5-0.3l-1.9-3.1
							v-3.4H2.7V-15.4z"/>
					</g>
				</g>
			</g>
		</g>
	</g>
</g>
</svg>
